<mxfile host="app.diagrams.net" agent="Mozilla/5.0 (Windows NT 10.0; Win64; x64) AppleWebKit/537.36 (KHTML, like Gecko) Chrome/128.0.0.0 Safari/537.36 Edg/128.0.0.0" version="24.7.7">
  <diagram name="Page-1" id="TgxaCJLtFmfhV8dF2Eh_">
    <mxGraphModel dx="990" dy="565" grid="1" gridSize="10" guides="1" tooltips="1" connect="1" arrows="1" fold="1" page="1" pageScale="1" pageWidth="827" pageHeight="1169" math="0" shadow="0">
      <root>
        <mxCell id="0" />
        <mxCell id="1" parent="0" />
        <mxCell id="1fKspppeQF9PUxs5mCQK-3" style="edgeStyle=orthogonalEdgeStyle;rounded=0;orthogonalLoop=1;jettySize=auto;html=1;exitX=1;exitY=0;exitDx=0;exitDy=0;entryX=0;entryY=0.5;entryDx=0;entryDy=0;" edge="1" parent="1" source="1fKspppeQF9PUxs5mCQK-1" target="1fKspppeQF9PUxs5mCQK-2">
          <mxGeometry relative="1" as="geometry" />
        </mxCell>
        <mxCell id="1fKspppeQF9PUxs5mCQK-1" value="&lt;font style=&quot;font-size: 18px;&quot;&gt;balise&lt;/font&gt;" style="ellipse;whiteSpace=wrap;html=1;" vertex="1" parent="1">
          <mxGeometry x="160" y="320" width="120" height="80" as="geometry" />
        </mxCell>
        <mxCell id="1fKspppeQF9PUxs5mCQK-7" style="edgeStyle=orthogonalEdgeStyle;rounded=0;orthogonalLoop=1;jettySize=auto;html=1;exitX=1;exitY=1;exitDx=0;exitDy=0;" edge="1" parent="1" source="1fKspppeQF9PUxs5mCQK-2" target="1fKspppeQF9PUxs5mCQK-4">
          <mxGeometry relative="1" as="geometry" />
        </mxCell>
        <mxCell id="1fKspppeQF9PUxs5mCQK-8" style="edgeStyle=orthogonalEdgeStyle;rounded=0;orthogonalLoop=1;jettySize=auto;html=1;exitX=0.75;exitY=1;exitDx=0;exitDy=0;entryX=0;entryY=0.5;entryDx=0;entryDy=0;" edge="1" parent="1" source="1fKspppeQF9PUxs5mCQK-2" target="1fKspppeQF9PUxs5mCQK-5">
          <mxGeometry relative="1" as="geometry">
            <Array as="points">
              <mxPoint x="444" y="450" />
              <mxPoint x="530" y="450" />
            </Array>
          </mxGeometry>
        </mxCell>
        <mxCell id="1fKspppeQF9PUxs5mCQK-2" value="doctype&lt;div&gt;html&lt;/div&gt;" style="whiteSpace=wrap;html=1;" vertex="1" parent="1">
          <mxGeometry x="354" y="310" width="120" height="60" as="geometry" />
        </mxCell>
        <mxCell id="1fKspppeQF9PUxs5mCQK-9" style="edgeStyle=orthogonalEdgeStyle;rounded=0;orthogonalLoop=1;jettySize=auto;html=1;exitX=0.5;exitY=0;exitDx=0;exitDy=0;entryX=0.5;entryY=1;entryDx=0;entryDy=0;" edge="1" parent="1" source="1fKspppeQF9PUxs5mCQK-4" target="1fKspppeQF9PUxs5mCQK-6">
          <mxGeometry relative="1" as="geometry" />
        </mxCell>
        <mxCell id="1fKspppeQF9PUxs5mCQK-4" value="head" style="rounded=1;whiteSpace=wrap;html=1;" vertex="1" parent="1">
          <mxGeometry x="530" y="360" width="120" height="60" as="geometry" />
        </mxCell>
        <mxCell id="1fKspppeQF9PUxs5mCQK-15" style="edgeStyle=orthogonalEdgeStyle;rounded=0;orthogonalLoop=1;jettySize=auto;html=1;exitX=1;exitY=0.5;exitDx=0;exitDy=0;entryX=0;entryY=0.5;entryDx=0;entryDy=0;" edge="1" parent="1" source="1fKspppeQF9PUxs5mCQK-5" target="1fKspppeQF9PUxs5mCQK-14">
          <mxGeometry relative="1" as="geometry" />
        </mxCell>
        <mxCell id="1fKspppeQF9PUxs5mCQK-21" style="edgeStyle=orthogonalEdgeStyle;rounded=0;orthogonalLoop=1;jettySize=auto;html=1;exitX=0.25;exitY=1;exitDx=0;exitDy=0;entryX=1;entryY=0.5;entryDx=0;entryDy=0;" edge="1" parent="1" source="1fKspppeQF9PUxs5mCQK-5" target="1fKspppeQF9PUxs5mCQK-20">
          <mxGeometry relative="1" as="geometry" />
        </mxCell>
        <mxCell id="1fKspppeQF9PUxs5mCQK-25" style="edgeStyle=orthogonalEdgeStyle;rounded=0;orthogonalLoop=1;jettySize=auto;html=1;exitX=0.5;exitY=1;exitDx=0;exitDy=0;" edge="1" parent="1" source="1fKspppeQF9PUxs5mCQK-5" target="1fKspppeQF9PUxs5mCQK-22">
          <mxGeometry relative="1" as="geometry" />
        </mxCell>
        <mxCell id="1fKspppeQF9PUxs5mCQK-37" style="edgeStyle=orthogonalEdgeStyle;rounded=0;orthogonalLoop=1;jettySize=auto;html=1;exitX=1;exitY=0.25;exitDx=0;exitDy=0;" edge="1" parent="1" source="1fKspppeQF9PUxs5mCQK-5" target="1fKspppeQF9PUxs5mCQK-36">
          <mxGeometry relative="1" as="geometry" />
        </mxCell>
        <mxCell id="1fKspppeQF9PUxs5mCQK-38" style="edgeStyle=orthogonalEdgeStyle;rounded=0;orthogonalLoop=1;jettySize=auto;html=1;entryX=0;entryY=0.5;entryDx=0;entryDy=0;exitX=0.821;exitY=1.012;exitDx=0;exitDy=0;exitPerimeter=0;" edge="1" parent="1" source="1fKspppeQF9PUxs5mCQK-5" target="1fKspppeQF9PUxs5mCQK-29">
          <mxGeometry relative="1" as="geometry">
            <Array as="points">
              <mxPoint x="629" y="570" />
              <mxPoint x="740" y="570" />
            </Array>
          </mxGeometry>
        </mxCell>
        <mxCell id="1fKspppeQF9PUxs5mCQK-40" style="edgeStyle=orthogonalEdgeStyle;rounded=0;orthogonalLoop=1;jettySize=auto;html=1;entryX=0;entryY=0.5;entryDx=0;entryDy=0;" edge="1" parent="1" source="1fKspppeQF9PUxs5mCQK-5" target="1fKspppeQF9PUxs5mCQK-30">
          <mxGeometry relative="1" as="geometry">
            <Array as="points">
              <mxPoint x="610" y="600" />
              <mxPoint x="690" y="600" />
              <mxPoint x="690" y="660" />
            </Array>
          </mxGeometry>
        </mxCell>
        <mxCell id="1fKspppeQF9PUxs5mCQK-46" style="edgeStyle=orthogonalEdgeStyle;rounded=0;orthogonalLoop=1;jettySize=auto;html=1;entryX=0.5;entryY=1;entryDx=0;entryDy=0;" edge="1" parent="1" source="1fKspppeQF9PUxs5mCQK-5" target="1fKspppeQF9PUxs5mCQK-45">
          <mxGeometry relative="1" as="geometry" />
        </mxCell>
        <mxCell id="1fKspppeQF9PUxs5mCQK-5" value="body" style="rounded=1;whiteSpace=wrap;html=1;" vertex="1" parent="1">
          <mxGeometry x="530" y="440" width="120" height="60" as="geometry" />
        </mxCell>
        <mxCell id="1fKspppeQF9PUxs5mCQK-12" style="edgeStyle=orthogonalEdgeStyle;rounded=0;orthogonalLoop=1;jettySize=auto;html=1;exitX=1;exitY=0.5;exitDx=0;exitDy=0;" edge="1" parent="1" source="1fKspppeQF9PUxs5mCQK-6" target="1fKspppeQF9PUxs5mCQK-10">
          <mxGeometry relative="1" as="geometry" />
        </mxCell>
        <mxCell id="1fKspppeQF9PUxs5mCQK-13" style="edgeStyle=orthogonalEdgeStyle;rounded=0;orthogonalLoop=1;jettySize=auto;html=1;exitX=1;exitY=0.75;exitDx=0;exitDy=0;entryX=0;entryY=0.5;entryDx=0;entryDy=0;" edge="1" parent="1" source="1fKspppeQF9PUxs5mCQK-6" target="1fKspppeQF9PUxs5mCQK-11">
          <mxGeometry relative="1" as="geometry" />
        </mxCell>
        <mxCell id="1fKspppeQF9PUxs5mCQK-6" value="meta" style="rounded=1;whiteSpace=wrap;html=1;" vertex="1" parent="1">
          <mxGeometry x="530" y="270" width="120" height="60" as="geometry" />
        </mxCell>
        <mxCell id="1fKspppeQF9PUxs5mCQK-10" value="link" style="rounded=1;whiteSpace=wrap;html=1;" vertex="1" parent="1">
          <mxGeometry x="680" y="240" width="120" height="60" as="geometry" />
        </mxCell>
        <mxCell id="1fKspppeQF9PUxs5mCQK-11" value="title" style="rounded=1;whiteSpace=wrap;html=1;" vertex="1" parent="1">
          <mxGeometry x="680" y="320" width="120" height="60" as="geometry" />
        </mxCell>
        <mxCell id="1fKspppeQF9PUxs5mCQK-14" value="h_" style="rounded=1;whiteSpace=wrap;html=1;" vertex="1" parent="1">
          <mxGeometry x="860" y="490" width="120" height="60" as="geometry" />
        </mxCell>
        <mxCell id="1fKspppeQF9PUxs5mCQK-43" style="edgeStyle=orthogonalEdgeStyle;rounded=0;orthogonalLoop=1;jettySize=auto;html=1;exitX=0.5;exitY=1;exitDx=0;exitDy=0;entryX=0.5;entryY=0;entryDx=0;entryDy=0;endArrow=none;endFill=0;" edge="1" parent="1" source="1fKspppeQF9PUxs5mCQK-16" target="1fKspppeQF9PUxs5mCQK-42">
          <mxGeometry relative="1" as="geometry" />
        </mxCell>
        <mxCell id="1fKspppeQF9PUxs5mCQK-16" value="i" style="rounded=1;whiteSpace=wrap;html=1;sketch=1;curveFitting=1;jiggle=2;" vertex="1" parent="1">
          <mxGeometry x="70" y="430" width="120" height="60" as="geometry" />
        </mxCell>
        <mxCell id="1fKspppeQF9PUxs5mCQK-18" value="strong" style="rounded=1;whiteSpace=wrap;html=1;" vertex="1" parent="1">
          <mxGeometry x="210" y="620" width="120" height="60" as="geometry" />
        </mxCell>
        <mxCell id="1fKspppeQF9PUxs5mCQK-19" value="b" style="rounded=1;whiteSpace=wrap;html=1;sketch=1;curveFitting=1;jiggle=2;" vertex="1" parent="1">
          <mxGeometry x="210" y="700" width="120" height="60" as="geometry" />
        </mxCell>
        <mxCell id="1fKspppeQF9PUxs5mCQK-27" style="edgeStyle=orthogonalEdgeStyle;rounded=0;orthogonalLoop=1;jettySize=auto;html=1;" edge="1" parent="1" source="1fKspppeQF9PUxs5mCQK-20">
          <mxGeometry relative="1" as="geometry">
            <mxPoint x="270" y="620" as="targetPoint" />
          </mxGeometry>
        </mxCell>
        <mxCell id="1fKspppeQF9PUxs5mCQK-28" style="edgeStyle=orthogonalEdgeStyle;rounded=0;orthogonalLoop=1;jettySize=auto;html=1;exitX=0;exitY=0.25;exitDx=0;exitDy=0;entryX=1;entryY=0.5;entryDx=0;entryDy=0;" edge="1" parent="1" source="1fKspppeQF9PUxs5mCQK-20" target="1fKspppeQF9PUxs5mCQK-42">
          <mxGeometry relative="1" as="geometry" />
        </mxCell>
        <mxCell id="1fKspppeQF9PUxs5mCQK-20" value="p" style="rounded=1;whiteSpace=wrap;html=1;" vertex="1" parent="1">
          <mxGeometry x="390" y="525" width="120" height="60" as="geometry" />
        </mxCell>
        <mxCell id="1fKspppeQF9PUxs5mCQK-24" style="edgeStyle=orthogonalEdgeStyle;rounded=0;orthogonalLoop=1;jettySize=auto;html=1;exitX=0.5;exitY=1;exitDx=0;exitDy=0;entryX=0.5;entryY=0;entryDx=0;entryDy=0;endArrow=none;endFill=0;" edge="1" parent="1" source="1fKspppeQF9PUxs5mCQK-22" target="1fKspppeQF9PUxs5mCQK-23">
          <mxGeometry relative="1" as="geometry" />
        </mxCell>
        <mxCell id="1fKspppeQF9PUxs5mCQK-22" value="script" style="rounded=1;whiteSpace=wrap;html=1;" vertex="1" parent="1">
          <mxGeometry x="490" y="620" width="120" height="60" as="geometry" />
        </mxCell>
        <mxCell id="1fKspppeQF9PUxs5mCQK-23" value="noscript" style="rounded=1;whiteSpace=wrap;html=1;" vertex="1" parent="1">
          <mxGeometry x="490" y="690" width="120" height="60" as="geometry" />
        </mxCell>
        <mxCell id="1fKspppeQF9PUxs5mCQK-39" style="edgeStyle=orthogonalEdgeStyle;rounded=0;orthogonalLoop=1;jettySize=auto;html=1;" edge="1" parent="1" source="1fKspppeQF9PUxs5mCQK-29" target="1fKspppeQF9PUxs5mCQK-31">
          <mxGeometry relative="1" as="geometry">
            <Array as="points">
              <mxPoint x="900" y="570" />
              <mxPoint x="900" y="590" />
              <mxPoint x="920" y="590" />
            </Array>
          </mxGeometry>
        </mxCell>
        <mxCell id="1fKspppeQF9PUxs5mCQK-29" value="ol" style="rounded=1;whiteSpace=wrap;html=1;" vertex="1" parent="1">
          <mxGeometry x="730" y="540" width="120" height="60" as="geometry" />
        </mxCell>
        <mxCell id="1fKspppeQF9PUxs5mCQK-41" style="edgeStyle=orthogonalEdgeStyle;rounded=0;orthogonalLoop=1;jettySize=auto;html=1;entryX=0;entryY=0.5;entryDx=0;entryDy=0;" edge="1" parent="1" source="1fKspppeQF9PUxs5mCQK-30" target="1fKspppeQF9PUxs5mCQK-31">
          <mxGeometry relative="1" as="geometry" />
        </mxCell>
        <mxCell id="1fKspppeQF9PUxs5mCQK-30" value="ul" style="rounded=1;whiteSpace=wrap;html=1;" vertex="1" parent="1">
          <mxGeometry x="707" y="630" width="120" height="60" as="geometry" />
        </mxCell>
        <mxCell id="1fKspppeQF9PUxs5mCQK-31" value="li" style="rounded=1;whiteSpace=wrap;html=1;" vertex="1" parent="1">
          <mxGeometry x="870" y="630" width="120" height="60" as="geometry" />
        </mxCell>
        <mxCell id="1fKspppeQF9PUxs5mCQK-32" value="css" style="text;html=1;align=center;verticalAlign=middle;resizable=0;points=[];autosize=1;strokeColor=none;fillColor=none;" vertex="1" parent="1">
          <mxGeometry x="800" y="255" width="40" height="30" as="geometry" />
        </mxCell>
        <mxCell id="1fKspppeQF9PUxs5mCQK-33" value="ico." style="text;html=1;align=center;verticalAlign=middle;resizable=0;points=[];autosize=1;strokeColor=none;fillColor=none;" vertex="1" parent="1">
          <mxGeometry x="800" y="335" width="40" height="30" as="geometry" />
        </mxCell>
        <mxCell id="1fKspppeQF9PUxs5mCQK-34" value="lang; viewport; etc." style="text;html=1;align=center;verticalAlign=middle;resizable=0;points=[];autosize=1;strokeColor=none;fillColor=none;" vertex="1" parent="1">
          <mxGeometry x="530" y="238" width="120" height="30" as="geometry" />
        </mxCell>
        <mxCell id="1fKspppeQF9PUxs5mCQK-36" value="button" style="rounded=1;whiteSpace=wrap;html=1;" vertex="1" parent="1">
          <mxGeometry x="827" y="410" width="120" height="60" as="geometry" />
        </mxCell>
        <mxCell id="1fKspppeQF9PUxs5mCQK-42" value="em" style="rounded=1;whiteSpace=wrap;html=1;" vertex="1" parent="1">
          <mxGeometry x="70" y="500" width="120" height="60" as="geometry" />
        </mxCell>
        <mxCell id="1fKspppeQF9PUxs5mCQK-44" style="edgeStyle=orthogonalEdgeStyle;rounded=0;orthogonalLoop=1;jettySize=auto;html=1;endArrow=none;endFill=0;" edge="1" parent="1" source="1fKspppeQF9PUxs5mCQK-19" target="1fKspppeQF9PUxs5mCQK-18">
          <mxGeometry relative="1" as="geometry">
            <Array as="points" />
          </mxGeometry>
        </mxCell>
        <mxCell id="1fKspppeQF9PUxs5mCQK-45" value="img" style="rounded=1;whiteSpace=wrap;html=1;" vertex="1" parent="1">
          <mxGeometry x="300" y="420" width="120" height="60" as="geometry" />
        </mxCell>
      </root>
    </mxGraphModel>
  </diagram>
</mxfile>
